#N canvas 152 59 1176 693 10;
#X declare -lib mrpeach;
#X declare -lib mrpeach;
#X declare -lib cyclone;
#X declare -lib cyclone;
#X declare -lib cyclone;
#X declare -lib cyclone;
#X declare -lib cyclone;
#X declare -lib cyclone;
#X declare -lib cyclone;
#X declare -lib cyclone;
#X declare -lib cyclone;
#X declare -lib cyclone;
#X declare -lib cyclone;
#X declare -lib cyclone;
#X declare -lib cyclone;
#X declare -lib cyclone;
#X declare -lib cyclone;
#X declare -lib cyclone;
#X declare -lib cyclone;
#X declare -lib cyclone;
#X declare -lib cyclone;
#X declare -lib cyclone;
#X declare -lib cyclone;
#X declare -lib cyclone;
#X declare -lib cyclone;
#X declare -lib cyclone;
#X declare -lib cyclone;
#X declare -lib cyclone;
#X declare -lib cyclone;
#X declare -lib cyclone;
#X declare -lib cyclone;
#X declare -lib cyclone;
#X declare -lib cyclone;
#X declare -lib cyclone;
#X declare -lib mrpeach;
#X declare -lib cyclone;
#X declare -lib cyclone;
#X declare -lib cyclone;
#X declare -lib cyclone;
#X declare -lib cyclone;
#X declare -lib cyclone;
#X declare -lib cyclone;
#X declare -lib cyclone;
#X declare -lib cyclone;
#X declare -lib cyclone;
#X declare -lib cyclone;
#X declare -lib cyclone;
#X declare -lib cyclone;
#X declare -lib cyclone;
#X declare -lib cyclone;
#X declare -lib cyclone;
#X declare -lib cyclone;
#X declare -lib cyclone;
#X declare -lib cyclone;
#X declare -lib cyclone;
#X declare -lib cyclone;
#X declare -lib cyclone;
#X declare -lib cyclone;
#X declare -lib cyclone;
#X declare -lib cyclone;
#X declare -lib cyclone;
#X declare -lib cyclone;
#X declare -lib cyclone;
#X declare -lib cyclone;
#X declare -lib cyclone;
#X declare -lib cyclone;
#X declare -lib cyclone;
#X declare -lib mrpeach;
#X declare -lib cyclone;
#X declare -lib cyclone;
#X declare -lib cyclone;
#X declare -lib cyclone;
#X declare -lib cyclone;
#X declare -lib cyclone;
#X declare -lib cyclone;
#X declare -lib cyclone;
#X declare -lib cyclone;
#X declare -lib cyclone;
#X declare -lib cyclone;
#X declare -lib cyclone;
#X declare -lib cyclone;
#X declare -lib cyclone;
#X declare -lib cyclone;
#X declare -lib cyclone;
#X declare -lib cyclone;
#X declare -lib cyclone;
#X declare -lib cyclone;
#X declare -lib cyclone;
#X declare -lib cyclone;
#X declare -lib cyclone;
#X declare -lib cyclone;
#X declare -lib cyclone;
#X declare -lib cyclone;
#X declare -lib cyclone;
#X declare -lib cyclone;
#X declare -lib cyclone;
#X declare -lib cyclone;
#X declare -lib cyclone;
#X declare -lib cyclone;
#X declare -lib cyclone;
#X obj 393 18 udpreceive 9000;
#X obj 389 67 unpackOSC;
#X obj 253 67 print;
#X floatatom 98 157 5 0 0 0 - - -;
#X floatatom 221 153 5 0 0 0 - - -;
#X obj 101 110 routeOSC /emotionalComposer/joy /emotionalComposer/sadness
/emotionalComposer/anger;
#X floatatom 364 177 5 0 0 0 - - -;
#X msg 60 17 s;
#X obj 60 17 import mrpeach;
#X text 102 176 Joy;
#X obj 31 377 moses 10;
#X floatatom 80 318 5 0 0 0 - - -;
#X floatatom 15 344 5 0 0 0 - - -;
#X obj -11 77 tgl 15 0 empty empty empty 17 7 0 10 -262144 -1 -1 1
1;
#X obj 14 220 metro 1000;
#X floatatom -14 418 5 0 0 0 - - -;
#X text -14 245 Probability Machine;
#X text 213 247 Probability Machine;
#X text 466 241 Probability Machine;
#X obj -28 267 random 1000;
#X obj 17 313 / 1000;
#X text 215 174 Sadness;
#X text 363 200 Anger;
#X text 81 300 Probability 0 - 1;
#X obj 263 383 moses 10;
#X floatatom 312 324 5 0 0 0 - - -;
#X floatatom 247 350 5 0 0 0 - - -;
#X obj 204 273 random 1000;
#X obj 249 319 / 1000;
#X text 313 306 Probability 0 - 1;
#X obj 518 385 moses 10;
#X floatatom 570 326 5 0 0 0 - - -;
#X floatatom 502 352 5 0 0 0 - - -;
#X obj 459 275 random 1000;
#X obj 504 321 / 1000;
#X text 568 308 Probability 0 - 1;
#X obj 40 423 bng 15 250 50 0 empty empty empty 17 7 0 10 -262144 -1
-1;
#X floatatom 208 411 5 0 0 0 - - -;
#X obj 274 406 bng 15 250 50 0 empty empty empty 17 7 0 10 -262144
-1 -1;
#X floatatom 501 426 5 0 0 0 - - -;
#X obj 548 427 bng 15 250 50 0 empty empty empty 17 7 0 10 -262144
-1 -1;
#X obj 795 361 table major-scale;
#X obj 795 383 table natural-minor;
#X obj 796 407 table hexafona;
#X floatatom 273 513 5 0 0 0 - - -;
#X obj 580 47 loadbang;
#X obj 282 447 random 7;
#X obj 3 500 tabread major-scale;
#X obj 37 453 random 7;
#X obj 283 473 tabread natural-minor;
#X floatatom 14 532 5 0 0 0 - - -;
#X obj 506 495 tabread hexafona;
#X obj 534 458 random 7;
#X floatatom 506 534 5 0 0 0 - - -;
#X obj 523 564 +;
#X text 624 509 Octave;
#X obj 588 547 * 12;
#X floatatom 602 523 5 0 0 0 - - -;
#X floatatom 534 598 5 0 0 0 - - -;
#X obj 303 557 +;
#X text 415 499 Octave;
#X obj 352 530 * 12;
#X floatatom 373 503 5 0 0 0 - - -;
#X floatatom 302 588 5 0 0 0 - - -;
#X obj 32 601 +;
#X text 135 544 Octave;
#X obj 81 574 * 12;
#X floatatom 102 547 5 0 0 0 - - -;
#X floatatom 31 632 5 0 0 0 - - -;
#X obj 5 704 polywavesynth_example;
#X obj 454 213 metro 950;
#X obj 207 218 metro 900;
#X obj 324 661 polywavesynth_example2;
#X obj 592 689 polywavesynth_example3;
#X floatatom 20 151 5 0 0 0 - - -;
#X msg 516 82 \; major-scale 0 0 2 4 6 7 9 11 \; natural-minor 0 0
2 3 5 7 9 11 \; hexafona 0 0 2 4 6 8 10 12 \;;
#X connect 0 0 1 0;
#X connect 1 0 2 0;
#X connect 1 0 5 0;
#X connect 3 0 11 0;
#X connect 4 0 25 0;
#X connect 5 0 3 0;
#X connect 5 1 4 0;
#X connect 5 2 6 0;
#X connect 6 0 31 0;
#X connect 10 0 15 0;
#X connect 10 0 36 0;
#X connect 11 0 10 1;
#X connect 12 0 10 0;
#X connect 13 0 14 0;
#X connect 13 0 71 0;
#X connect 13 0 70 0;
#X connect 14 0 19 0;
#X connect 19 0 20 0;
#X connect 20 0 12 0;
#X connect 24 0 37 0;
#X connect 24 0 38 0;
#X connect 25 0 24 1;
#X connect 26 0 24 0;
#X connect 27 0 28 0;
#X connect 28 0 26 0;
#X connect 30 0 40 0;
#X connect 30 0 39 0;
#X connect 31 0 30 1;
#X connect 32 0 30 0;
#X connect 33 0 34 0;
#X connect 34 0 32 0;
#X connect 36 0 48 0;
#X connect 38 0 46 0;
#X connect 40 0 52 0;
#X connect 44 0 59 0;
#X connect 45 0 75 0;
#X connect 46 0 49 0;
#X connect 47 0 50 0;
#X connect 48 0 47 0;
#X connect 49 0 44 0;
#X connect 50 0 64 0;
#X connect 51 0 53 0;
#X connect 52 0 51 0;
#X connect 53 0 54 0;
#X connect 54 0 58 0;
#X connect 56 0 54 1;
#X connect 57 0 56 0;
#X connect 58 0 73 0;
#X connect 59 0 63 0;
#X connect 61 0 59 1;
#X connect 62 0 61 0;
#X connect 63 0 72 0;
#X connect 64 0 68 0;
#X connect 66 0 64 1;
#X connect 67 0 66 0;
#X connect 68 0 69 0;
#X connect 70 0 33 0;
#X connect 71 0 27 0;
#X connect 74 0 14 1;
